<svg xmlns="http://www.w3.org/2000/svg" version="1.0" width="92.000000pt" height="92.000000pt" viewBox="0 0 92.000000 92.000000" preserveAspectRatio="xMidYMid meet">

<g transform="translate(0.000000,92.000000) scale(0.100000,-0.100000)" fill="#ffffff" stroke="none">
<path d="M44 909 c-12 -6 -27 -22 -33 -35 -15 -34 -15 -793 0 -827 6 -14 22 -30 36 -36 34 -16 576 -15 606 1 42 22 46 37 47 177 l0 135 110 111 c61 62 110 120 110 129 0 25 -27 73 -45 80 -39 14 -67 5 -114 -39 -26 -25 -51 -45 -55 -45 -3 0 -6 52 -6 116 l0 116 -59 61 -60 62 -258 2 c-166 1 -266 -2 -279 -8z m444 -121 l3 -78 79 0 80 0 0 -107 0 -107 -64 -66 c-50 -51 -68 -78 -83 -125 -11 -33 -18 -66 -16 -72 6 -17 35 -16 76 0 18 8 44 17 60 21 l27 6 0 -93 c0 -59 -4 -97 -12 -105 -17 -17 -559 -17 -576 0 -17 17 -17 779 0 796 9 9 66 12 218 10 l205 -3 3 -77z m102 45 c23 -20 45 -45 51 -55 9 -16 5 -18 -46 -18 l-55 0 0 55 c0 30 2 55 5 55 3 0 23 -16 45 -37z m274 -250 c4 -10 -1 -24 -13 -37 -20 -19 -21 -19 -41 -1 -19 17 -19 19 -4 37 21 23 50 23 58 1z m-84 -79 c11 -13 4 -24 -51 -80 -35 -35 -66 -64 -69 -64 -3 0 -11 10 -18 21 -13 20 -9 26 44 80 62 63 74 68 94 43z m-160 -186 c0 -9 -49 -30 -61 -26 -4 2 -1 18 7 37 14 33 15 33 34 16 11 -10 20 -22 20 -27z"/>
<path d="M113 635 c-3 -9 -1 -21 4 -26 5 -5 93 -8 214 -7 196 3 204 4 204 23 0 19 -8 20 -208 23 -182 2 -208 0 -214 -13z"/>
<path d="M113 525 c-11 -31 13 -36 163 -33 141 3 149 4 149 23 0 19 -8 20 -153 23 -132 2 -153 0 -159 -13z"/>
<path d="M113 415 c-11 -31 13 -36 163 -33 141 3 149 4 149 23 0 19 -8 20 -153 23 -132 2 -153 0 -159 -13z"/>
<path d="M123 324 c-18 -8 -16 -41 3 -48 26 -10 278 -7 294 4 12 7 12 13 4 27 -10 16 -29 18 -150 20 -76 1 -145 -1 -151 -3z"/>
<path d="M330 135 l0 -26 103 3 c94 3 102 4 102 23 0 19 -8 20 -102 23 l-103 3 0 -26z"/>
</g>
</svg>