
<svg version="1.0" xmlns="http://www.w3.org/2000/svg"
 width="26" height="26" viewBox="0 0 48.000000 48.000000"
 preserveAspectRatio="xMidYMid meet">

<g transform="translate(0.000000,48.000000) scale(0.100000,-0.100000)"
fill="#005bdf" stroke="none">
<path d="M185 471 c-112 -29 -180 -117 -179 -231 1 -139 97 -235 234 -234 98
1 169 45 216 134 25 47 24 152 0 200 -52 102 -169 158 -271 131z m155 -131
c17 -17 20 -33 20 -100 0 -109 -11 -120 -120 -120 -67 0 -83 3 -100 20 -17 17
-20 33 -20 100 0 67 3 83 20 100 17 17 33 20 100 20 67 0 83 -3 100 -20z"/>
<path d="M296 311 c-4 -5 -2 -12 3 -15 5 -4 12 -2 15 3 4 5 2 12 -3 15 -5 4
-12 2 -15 -3z"/>
<path d="M200 280 c-11 -11 -20 -29 -20 -40 0 -26 34 -60 60 -60 26 0 60 34
60 60 0 11 -9 29 -20 40 -11 11 -29 20 -40 20 -11 0 -29 -9 -40 -20z m70 -15
c26 -32 -13 -81 -47 -59 -23 14 -28 41 -13 59 16 19 44 19 60 0z"/>
</g>
</svg>
