<svg version="1.0" xmlns="http://www.w3.org/2000/svg"
 width="30.000000pt" height="30.000000pt" viewBox="0 0 615.000000 615.000000"
 preserveAspectRatio="xMidYMid meet">

<g transform="translate(0.000000,615.000000) scale(0.100000,-0.100000)"
fill="#0068ff" stroke="none">
<path d="M2845 6099 c-510 -48 -986 -213 -1395 -483 -185 -123 -299 -214 -459
-371 -259 -253 -439 -500 -596 -820 -158 -321 -238 -574 -291 -928 -21 -142
-30 -534 -15 -694 35 -369 129 -706 290 -1038 167 -343 344 -589 617 -855 291
-284 602 -487 974 -638 757 -306 1625 -291 2369 42 220 98 471 251 661 402
114 91 379 356 474 475 128 161 243 344 341 544 133 270 206 479 260 750 75
372 75 818 0 1190 -185 921 -789 1708 -1630 2120 -318 156 -600 242 -955 290
-140 19 -508 27 -645 14z m-668 -2174 c89 -26 155 -127 137 -208 -15 -71 -52
-123 -669 -932 l-145 -190 368 -5 c361 -5 368 -5 404 -28 74 -46 104 -181 56
-252 -43 -62 -67 -73 -185 -81 -147 -10 -748 -10 -909 0 -144 10 -191 25 -237
81 -47 55 -48 155 -4 235 29 51 478 642 718 945 15 19 32 47 38 62 l10 26
-307 4 -307 3 -57 27 c-66 31 -89 61 -96 127 -9 99 34 157 139 185 81 22 973
23 1046 1z m1711 -12 c14 -11 35 -32 46 -47 21 -27 21 -38 24 -744 3 -737 1
-772 -36 -818 -60 -73 -186 -82 -262 -18 -61 52 -61 55 -58 830 l3 699 27 46
c37 63 75 81 161 76 48 -3 77 -11 95 -24z m-947 -463 c30 -5 90 -28 134 -50
44 -22 86 -40 94 -40 7 0 31 15 52 34 78 71 195 55 263 -37 21 -28 21 -37 21
-517 0 -480 0 -489 -21 -517 -68 -92 -180 -108 -264 -38 -23 19 -48 35 -56 35
-7 0 -42 -15 -76 -34 -84 -46 -157 -66 -238 -66 -221 0 -421 160 -506 405 -26
72 -28 93 -28 215 0 122 2 143 28 215 98 283 339 442 597 395z m1897 -22 c182
-55 313 -184 378 -373 26 -72 28 -93 28 -215 0 -122 -2 -143 -28 -215 -87
-251 -304 -405 -571 -405 -168 0 -299 54 -416 170 -134 133 -186 277 -176 489
10 224 104 389 282 496 139 83 338 104 503 53z"/>
<path d="M2811 3098 c-88 -43 -136 -149 -129 -282 9 -163 96 -256 237 -256 44
0 109 24 141 52 109 92 116 332 12 441 -65 69 -175 88 -261 45z"/>
<path d="M4555 3104 c-50 -27 -92 -74 -116 -128 -32 -72 -32 -200 0 -271 41
-93 113 -144 202 -145 94 0 164 41 207 123 24 47 27 62 27 157 0 99 -2 108
-31 160 -18 32 -49 68 -73 85 -36 25 -53 30 -114 32 -52 2 -80 -1 -102 -13z"/>
</g>
</svg>
