<svg width="160" height="160" viewBox="0 0 160 160" fill="none" xmlns="http://www.w3.org/2000/svg">
<path d="M82.1101 24.0255C81.8063 24.0563 81.5088 24.1275 81.224 24.2383C70.3583 28.5893 58.8696 32.9016 39.2999 33.5227C38.4163 33.5504 37.5785 33.9214 36.963 34.5559C36.3483 35.1912 36.0042 36.0408 36.0042 36.9252C35.9947 40.7099 36.0042 62.04 36.0042 65.5233C36.005 84.8444 41.9193 98.658 50.6759 108.191C59.4318 117.722 70.8135 122.926 81.5788 125.945C82.1816 126.115 82.8192 126.115 83.4212 125.945C94.1857 122.926 105.567 117.722 114.324 108.191C123.08 98.6588 128.995 84.846 128.996 65.5233C128.996 62.0402 129.005 40.7104 128.996 36.9252C128.996 36.0408 128.652 35.1911 128.037 34.5559C127.421 33.9214 126.584 33.5504 125.7 33.5227C106.132 32.9009 94.6433 28.5895 83.776 24.2383C83.2475 24.0295 82.6748 23.9559 82.1107 24.0255H82.1101ZM82.5001 31.0773C92.5565 35.07 104.451 39.0358 122.19 40.043C122.195 46.3821 122.19 62.4054 122.19 65.5223C122.19 83.4858 116.922 95.3153 109.326 103.582C101.966 111.594 92.2011 116.232 82.5001 119.069C72.798 116.233 63.0335 111.595 55.674 103.582C48.0786 95.3145 42.8106 83.486 42.8098 65.5223C42.8098 62.4044 42.8051 46.3815 42.8098 40.043C60.5487 39.0359 72.4428 35.07 82.5001 31.0773ZM103.87 55.7425V55.7433C102.989 55.7963 102.162 56.1902 101.567 56.8413L74.6696 85.7939L63.542 72.8237C62.9558 72.1331 62.1188 71.7043 61.2162 71.6323C60.3128 71.5604 59.4188 71.8515 58.7307 72.4409C58.0424 73.0294 57.6176 73.8688 57.5496 74.7715C57.4815 75.6749 57.7758 76.5681 58.3684 77.254L71.9768 93.1299H71.976C72.6065 93.864 73.5195 94.2952 74.4863 94.315C75.4538 94.3355 76.3834 93.9432 77.0439 93.2367L106.529 61.4833C107.16 60.8203 107.496 59.9319 107.463 59.0182C107.431 58.1037 107.031 57.2414 106.356 56.6252C105.68 56.0089 104.785 55.6909 103.872 55.7423L103.87 55.7425Z" fill="url(#paint0_linear_126_585)"/>
<defs>
<linearGradient id="paint0_linear_126_585" x1="60.0781" y1="49.518" x2="107.101" y2="50.9903" gradientUnits="userSpaceOnUse">
<stop stop-color="#5C9AF8"/>
<stop offset="1" stop-color="#D150FF"/>
</linearGradient>
</defs>
</svg>
