<svg width="160" height="160" viewBox="0 0 160 160" fill="none" xmlns="http://www.w3.org/2000/svg">
<path d="M144.714 58.7187C145.819 58.7187 146.714 57.8232 146.714 56.7187V52.0635C146.714 50.959 145.819 50.0635 144.714 50.0635H127.077C125.972 50.0635 125.077 49.1681 125.077 48.0635V37.6375C125.077 36.5329 124.181 35.6375 123.077 35.6375H112.65C111.546 35.6375 110.65 34.742 110.65 33.6375V16C110.65 14.8954 109.755 14 108.65 14H103.995C102.891 14 101.995 14.8954 101.995 16V33.6385C101.995 34.743 101.1 35.6385 99.9953 35.6385H95.3402C94.2356 35.6385 93.3402 34.743 93.3402 33.6385V16C93.3402 14.8954 92.4448 14 91.3402 14H86.685C85.5805 14 84.6851 14.8954 84.6851 16V33.6385C84.6851 34.743 83.7896 35.6385 82.6851 35.6385H78.0298C76.9253 35.6385 76.0299 34.7431 76.0298 33.6386L76.029 15.9999C76.029 14.8954 75.1336 14 74.029 14H69.3738C68.2692 14 67.3738 14.8954 67.3738 16V33.6385C67.3738 34.743 66.4784 35.6385 65.3738 35.6385H60.7187C59.6141 35.6385 58.7187 34.743 58.7187 33.6385V16C58.7187 14.8954 57.8232 14 56.7187 14H52.0635C50.959 14 50.0635 14.8954 50.0635 16V33.6383C50.0635 34.743 49.168 35.6384 48.0634 35.6383L37.6376 35.6376C36.533 35.6375 35.6375 36.533 35.6375 37.6376V48.0635C35.6375 49.1681 34.742 50.0636 33.6375 50.0636H16C14.8954 50.0636 14 50.959 14 52.0636V56.7187C14 57.8233 14.8954 58.7187 16 58.7187H33.6385C34.743 58.7187 35.6385 59.6141 35.6385 60.7187V65.3738C35.6385 66.4784 34.743 67.3738 33.6385 67.3738H16C14.8954 67.3738 14 68.2692 14 69.3738V74.029C14 75.1335 14.8954 76.029 16 76.029H33.6385C34.743 76.029 35.6385 76.9244 35.6385 78.029V82.6842C35.6385 83.7887 34.7431 84.6841 33.6386 84.6842L15.9999 84.685C14.8954 84.685 14 85.5805 14 86.685V91.3402C14 92.4448 14.8954 93.3402 16 93.3402H33.6385C34.743 93.3402 35.6385 94.2356 35.6385 95.3402V99.9954C35.6385 101.1 34.743 101.995 33.6385 101.995H16C14.8954 101.995 14 102.891 14 103.995V108.65C14 109.755 14.8954 110.65 16 110.65H33.6385C34.743 110.65 35.6385 111.546 35.6385 112.65V123.077C35.6385 124.181 36.5339 125.077 37.6385 125.077H48.0645C49.1691 125.077 50.0645 125.972 50.0645 127.077V144.715C50.0645 145.82 50.96 146.715 52.0645 146.715H56.7196C57.8242 146.715 58.7196 145.82 58.7196 144.715L58.7188 127.077C58.7187 125.972 59.6142 125.077 60.7188 125.077H65.3738C66.4784 125.077 67.3738 125.972 67.3738 127.077V144.715C67.3738 145.82 68.2693 146.715 69.3738 146.715H74.029C75.1335 146.715 76.029 145.82 76.029 144.715V127.077C76.029 125.972 76.9244 125.077 78.029 125.077H82.6841C83.7887 125.077 84.6841 125.972 84.6841 127.077V144.715C84.6841 145.82 85.5795 146.715 86.6841 146.715H91.3393C92.4438 146.715 93.3393 145.82 93.3393 144.715L93.3401 127.076C93.3402 125.972 94.2356 125.077 95.3401 125.077H99.9954C101.1 125.077 101.995 125.972 101.995 127.077V144.715C101.995 145.82 102.891 146.715 103.995 146.715H108.65C109.755 146.715 110.65 145.82 110.65 144.715V127.077C110.65 125.972 111.546 125.077 112.65 125.077H123.077C124.181 125.077 125.077 124.181 125.077 123.077V112.65C125.077 111.546 125.972 110.65 127.077 110.65H144.715C145.82 110.65 146.715 109.755 146.715 108.65V103.995C146.715 102.891 145.82 101.995 144.715 101.995H127.077C125.972 101.995 125.077 101.1 125.077 99.9954V95.3402C125.077 94.2356 125.972 93.3402 127.077 93.3402H144.715C145.82 93.3402 146.715 92.4448 146.715 91.3402V86.6851C146.715 85.5805 145.82 84.6851 144.715 84.6851H127.077C125.972 84.6851 125.077 83.7896 125.077 82.6851V78.0299C125.077 76.9254 125.972 76.0299 127.077 76.0299H144.715C145.82 76.0299 146.715 75.1345 146.715 74.0299V69.3747C146.715 68.2702 145.82 67.3748 144.715 67.3747L127.076 67.3739C125.972 67.3739 125.077 66.4784 125.077 65.3739V60.7187C125.077 59.6141 125.972 58.7187 127.077 58.7187L144.714 58.7187ZM116.42 114.42C116.42 115.525 115.525 116.42 114.42 116.42H46.2938C45.1893 116.42 44.2938 115.525 44.2938 114.42V46.2939C44.2938 45.1893 45.1893 44.2939 46.2938 44.2939H114.42C115.525 44.2939 116.42 45.1893 116.42 46.2939V114.42Z" fill="url(#paint0_linear_126_569)"/>
<path d="M103.437 59.2747C103.437 58.1701 102.542 57.2747 101.437 57.2747H59.2747C58.1701 57.2747 57.2747 58.1701 57.2747 59.2747V101.437C57.2747 102.542 58.1701 103.437 59.2747 103.437H101.437C102.542 103.437 103.437 102.542 103.437 101.437V59.2747ZM94.7819 92.7807C94.7819 93.8852 93.8865 94.7807 92.7819 94.7807H67.9298C66.8252 94.7807 65.9298 93.8852 65.9298 92.7807V67.9285C65.9298 66.824 66.8252 65.9285 67.9298 65.9285H92.7819C93.8865 65.9285 94.7819 66.824 94.7819 67.9285V92.7807Z" fill="url(#paint1_linear_126_569)"/>
<defs>
<linearGradient id="paint0_linear_126_569" x1="48.3605" y1="47.1788" x2="115.451" y2="49.4842" gradientUnits="userSpaceOnUse">
<stop stop-color="#5C9AF8"/>
<stop offset="1" stop-color="#D150FF"/>
</linearGradient>
<linearGradient id="paint1_linear_126_569" x1="69.2263" y1="68.8153" x2="92.5625" y2="69.6172" gradientUnits="userSpaceOnUse">
<stop stop-color="#5C9AF8"/>
<stop offset="1" stop-color="#D150FF"/>
</linearGradient>
</defs>
</svg>
