<svg width="160" height="160" viewBox="0 0 160 160" fill="none" xmlns="http://www.w3.org/2000/svg">
<path d="M79.9847 22C45.2652 22 17.0415 50.1508 17.001 84.8053C16.9773 85.8633 17.3816 86.8853 18.1225 87.6415C18.8634 88.3977 19.8785 88.824 20.9385 88.824C21.9976 88.824 23.0128 88.3977 23.7537 87.6415C24.4946 86.8853 24.8989 85.8633 24.8761 84.8053C24.9121 54.3953 49.5201 29.8602 79.9849 29.8602C110.452 29.8602 135.089 54.3953 135.125 84.8053C135.156 86.1888 135.913 87.4538 137.118 88.1371C138.324 88.8197 139.801 88.8197 141.006 88.1371C142.212 87.4538 142.968 86.1888 143 84.8053C142.96 50.153 114.704 22 79.9848 22H79.9847ZM108.355 53.5329C107.332 53.5627 106.36 53.99 105.648 54.7225L104.955 55.4208L88.344 72.0009C82.3955 68.1655 74.3053 68.8269 69.1103 74.0124C63.1391 79.9725 63.1391 89.76 69.1103 95.7201C75.0815 101.68 84.8795 101.68 90.8507 95.7201C95.6619 90.9179 96.5292 83.663 93.5885 77.8969L110.508 60.986L111.2 60.2956C111.969 59.557 112.406 58.5394 112.409 57.4745C112.413 56.4095 111.983 55.3892 111.219 54.6462C110.455 53.9031 109.421 53.5013 108.355 53.5329L108.355 53.5329ZM79.9779 77.3583C81.8887 77.3583 83.8029 78.0987 85.2847 79.5769C88.2466 82.5332 88.2466 87.2056 85.2847 90.1619C82.3229 93.1182 77.6418 93.1182 74.6799 90.1619C71.718 87.2056 71.718 82.5332 74.6799 79.5769C76.1609 78.0987 78.0682 77.3583 79.9788 77.3583H79.9779ZM55.4532 112.139C54.3932 112.115 53.3693 112.518 52.6117 113.258C51.854 113.998 51.4269 115.011 51.4269 116.069C51.4269 117.127 51.854 118.14 52.6117 118.88C53.3693 119.619 54.3932 120.023 55.4532 119.999H104.518C105.578 120.023 106.601 119.619 107.359 118.88C108.117 118.14 108.544 117.127 108.544 116.069C108.544 115.011 108.117 113.998 107.359 113.258C106.601 112.518 105.578 112.115 104.518 112.139H55.4532Z" fill="url(#paint0_linear_126_578)"/>
<defs>
<linearGradient id="paint0_linear_126_578" x1="49.6219" y1="46.5" x2="113.269" y2="49.312" gradientUnits="userSpaceOnUse">
<stop stop-color="#5C9AF8"/>
<stop offset="1" stop-color="#D150FF"/>
</linearGradient>
</defs>
</svg>
