
<svg version="1.0" xmlns="http://www.w3.org/2000/svg"
 width="26" height="26" viewBox="0 0 48.000000 48.000000"
 preserveAspectRatio="xMidYMid meet">

<g transform="translate(0.000000,48.000000) scale(0.100000,-0.100000)"
fill="#005bdf" stroke="none">
<path d="M185 471 c-112 -29 -180 -117 -179 -231 1 -139 97 -235 234 -234 98
1 169 45 216 134 25 47 24 152 0 200 -52 102 -169 158 -271 131z m167 -149
c18 -18 18 -146 0 -164 -17 -17 -206 -18 -222 -2 -32 32 -23 159 13 174 33 14
193 8 209 -8z"/>
<path d="M220 240 c0 -28 1 -29 25 -18 14 6 25 14 25 18 0 4 -11 12 -25 18
-24 11 -25 10 -25 -18z"/>
</g>
</svg>
