<svg width="34" height="32" viewBox="0 0 34 32" fill="none" xmlns="http://www.w3.org/2000/svg">
<path d="M20 0H12V8H20V0Z" fill="#DEDEDE"/>
<path d="M8 24H0V32H8V24Z" fill="#DEDEDE"/>
<path d="M8 12H0V20H8V12Z" fill="#DEDEDE"/>
<path d="M8 0H0V8H8V0Z" fill="#DEDEDE"/>
<path d="M20 16.84V12H12V20H16.84L20 16.84Z" fill="#DEDEDE"/>
<path d="M33.76 14.58L31.42 12.24C31.1 11.92 30.58 11.92 30.26 12.24L28.5 14L32 17.5L33.76 15.74C34.08 15.42 34.08 14.9 33.76 14.58Z" fill="#DEDEDE"/>
<path d="M14 28.5V32H17.5L30.84 18.66L27.34 15.16L14 28.5Z" fill="#DEDEDE"/>
<path d="M32 0H24V8H32V0Z" fill="#DEDEDE"/>
</svg>
